<?xml version="1.0" encoding="utf-8"?>
<!-- Generator: Adobe Illustrator 15.0.0, SVG Export Plug-In . SVG Version: 6.00 Build 0)  -->
<!DOCTYPE svg PUBLIC "-//W3C//DTD SVG 1.1//EN" "http://www.w3.org/Graphics/SVG/1.1/DTD/svg11.dtd">
<svg version="1.1" id="Layer_1" xmlns="http://www.w3.org/2000/svg" xmlns:xlink="http://www.w3.org/1999/xlink" x="0px" y="0px"
	 width="1400px" height="600px" viewBox="0 0 1400 600" enable-background="new 0 0 1400 600" xml:space="preserve">
<g>
	<g>
		<path fill="#415064" d="M555.564,612.72c0.572-0.051,0.799,0.729,0.293,1.012c-39.341,22.295-74.469,52.947-87.984,65.319
			c-1.113,1.021-2.079,1.911-2.889,2.67c1.062-0.313,2.327-0.688,3.769-1.123c17.541-5.31,61.825-19.877,101.07-42.346
			c0.501-0.282,1.057,0.304,0.723,0.779c-0.157,0.223-0.329,0.405-0.496,0.495c-8.331,4.654-63.742,35.438-89.562,45.199
			c-1.199,0.455-2.52,0.496-3.733,0.091c-3.571-1.193-7.127-1.143-10.015-0.698l-29.149,16.601
			c-0.855,0.486-1.938,0.183-2.423-0.667l-1.163-2.044c-0.491-0.85-0.192-1.941,0.662-2.428l29.155-16.601
			c1.851-2.245,3.713-5.28,4.506-8.963c0.273-1.254,0.981-2.367,1.983-3.166c21.572-17.228,76.315-49.175,84.57-53.96
			C555.048,612.789,555.292,612.74,555.564,612.72z"/>
		<path opacity="0.15" fill="#FFFFFF" d="M468.753,680.598c17.541-5.31,61.825-19.877,101.07-42.346
			c0.501-0.282,1.057,0.304,0.723,0.779c-0.157,0.223-0.329,0.405-0.496,0.495c-8.331,4.654-63.742,35.438-89.562,45.199
			c-1.199,0.455-2.52,0.496-3.733,0.091c-3.571-1.193-7.127-1.143-10.015-0.698l-29.149,16.601
			c-0.855,0.486-1.938,0.183-2.423-0.667l-0.582-1.022l30.399-17.309C466.047,681.407,467.312,681.033,468.753,680.598z"/>
	</g>
	<g>
		<g>
			<polygon fill="#313C46" points="883.017,513.289 882.825,510.8 932.506,506.885 932.698,509.384 			"/>
			<path fill="#313C46" d="M882.058,514.431l-0.365-4.602l51.784-4.078l0.365,4.594L882.058,514.431z M883.959,511.771l0.03,0.396
				l47.586-3.753l-0.031-0.396L883.959,511.771z"/>
		</g>
		<g>
			<path fill="#FFFFFF" d="M942.57,520.086c-6.99,0.557-13.11-4.673-13.656-11.663c-0.556-6.99,4.663-13.11,11.664-13.667
				c6.99-0.546,13.11,4.674,13.656,11.673C954.791,513.42,949.571,519.541,942.57,520.086z"/>
			<path fill="#313C46" d="M927.862,508.503c-0.598-7.557,5.068-14.203,12.635-14.79c7.557-0.596,14.192,5.069,14.79,12.636
				c0.597,7.557-5.068,14.192-12.635,14.79C935.096,521.735,928.459,516.07,927.862,508.503z M953.193,506.511
				c-0.506-6.403-6.131-11.209-12.534-10.703c-6.404,0.506-11.199,6.13-10.704,12.534c0.508,6.402,6.132,11.199,12.534,10.702
				C948.894,518.538,953.688,512.913,953.193,506.511z"/>
		</g>
		<g>
			<path fill="#F2F2F2" d="M917.929,511.032l-0.274-3.47c-0.03-0.415-0.403-0.729-0.819-0.688l-19.058,1.497
				c-0.415,0.03-0.729,0.394-0.688,0.81l0.273,3.469c0.03,0.415,0.395,0.729,0.809,0.698l19.06-1.497
				C917.645,511.812,917.959,511.447,917.929,511.032z"/>
			<path fill="#313C46" d="M896.311,512.731l-0.273-3.46c-0.081-1.001,0.668-1.871,1.659-1.951l19.059-1.498
				c1.001-0.081,1.872,0.668,1.953,1.659l0.271,3.47c0.071,0.992-0.667,1.861-1.668,1.942l-19.06,1.507
				C897.262,514.472,896.392,513.733,896.311,512.731z M898.16,509.394l0.224,2.883l18.472-1.456l-0.231-2.873L898.16,509.394z"/>
		</g>
		<g>
			<path fill="#F2F2F2" d="M910.857,512.357l-0.385-4.997c-0.041-0.415-0.405-0.729-0.818-0.698l-25.382,2.003
				c-0.415,0.03-0.729,0.395-0.688,0.819l0.385,4.997c0.041,0.415,0.403,0.729,0.819,0.688l25.381-2.003
				C910.584,513.137,910.897,512.772,910.857,512.357z"/>
			<path fill="#313C46" d="M882.927,514.562l-0.395-4.997c-0.081-1.002,0.667-1.871,1.658-1.952l25.382-1.993
				c0.991-0.081,1.871,0.658,1.942,1.659l0.395,4.997c0.08,1.002-0.668,1.872-1.659,1.942l-25.382,2.003
				C883.877,516.303,882.997,515.555,882.927,514.562z M884.656,509.687l0.344,4.411l24.785-1.952l-0.345-4.411L884.656,509.687z"/>
		</g>
		<g>
			<path fill="#FA6B3A" d="M890.442,514.725l-0.517-6.505c-0.03-0.414-0.394-0.729-0.809-0.698l-69.538,5.483
				c-0.424,0.03-0.729,0.395-0.698,0.81l0.516,6.504c0.03,0.426,0.396,0.729,0.81,0.698l69.539-5.473
				C890.17,515.504,890.473,515.14,890.442,514.725z"/>
			<path fill="#313C46" d="M817.709,520.461l-0.507-6.505c-0.11-1.345,0.9-2.529,2.235-2.631l69.549-5.482
				c1.336-0.102,2.519,0.91,2.62,2.245l0.516,6.506c0.111,1.345-0.9,2.518-2.246,2.619l-69.538,5.483
				C819.003,522.808,817.819,521.796,817.709,520.461z M820.632,514.613l0.374,4.653l67.677-5.331l-0.364-4.653L820.632,514.613z"/>
		</g>
	</g>
	<path fill="#313C46" d="M758.124,716.146l-40.687-59.128l-2.741-3.997l-13.768-19.999c-3.683-5.341-2.327-12.665,3.024-16.348
		l18.928-13.029c1.102-0.759,1.386-2.266,0.627-3.369c-0.759-1.112-2.267-1.386-3.379-0.627L701.2,612.679
		c-7.557,5.2-9.463,15.538-4.268,23.095l13.757,20l2.752,3.996l40.697,59.119c3.672,5.34,2.316,12.675-3.025,16.347
		c-5.341,3.683-12.675,2.327-16.347-3.015l-33.656-48.901c-5.397-7.84-16.146-9.802-23.96-4.37l-23.814,16.712
		c-1.102,0.758-1.381,2.266-0.622,3.368c0.759,1.104,2.271,1.387,3.369,0.628l21.967-15.113c6.747-4.654,15.989-2.943,20.632,3.813
		l32.088,46.615c5.189,7.546,15.548,9.459,23.095,4.259C761.411,734.042,763.324,723.684,758.124,716.146z"/>
	<g>
		<path fill="#FFFFFF" d="M672.785,713.679c10.49-7.213,13.141-21.578,5.923-32.068c-7.218-10.49-21.578-13.141-32.073-5.919
			c-10.49,7.214-13.141,21.578-5.923,32.068C647.935,718.251,662.294,720.901,672.785,713.679z"/>
		<path fill="#313C46" d="M638.375,709.368c-8.093-11.765-5.099-27.92,6.661-36.014c11.76-8.092,27.916-5.118,36.008,6.646
			c8.092,11.755,5.108,27.921-6.651,36.014C662.628,724.107,646.468,721.123,638.375,709.368z M676.376,683.208
			c-6.322-9.185-18.942-11.502-28.127-5.179c-9.191,6.322-11.528,18.937-5.205,28.122c6.322,9.186,18.947,11.522,28.133,5.2
			C680.367,705.029,682.698,692.394,676.376,683.208z"/>
	</g>
	<g>
		<path fill="#FFFFFF" d="M666.579,704.665c5.513-3.794,6.904-11.34,3.111-16.854c-3.793-5.503-11.335-6.899-16.849-3.106
			c-5.513,3.795-6.899,11.331-3.111,16.844C653.523,707.062,661.065,708.458,666.579,704.665z"/>
		<path fill="#313C46" d="M647.394,703.157c-4.674-6.788-2.949-16.104,3.849-20.778c6.793-4.684,16.115-2.964,20.784,3.823
			c4.679,6.798,2.959,16.116-3.839,20.799C661.389,711.675,652.067,709.956,647.394,703.157z M667.357,689.42
			c-2.898-4.219-8.68-5.281-12.903-2.377c-4.224,2.902-5.295,8.688-2.397,12.907c2.908,4.219,8.694,5.291,12.918,2.378
			C669.199,699.425,670.266,693.639,667.357,689.42z"/>
	</g>
	<g>
		<g>
			<path fill="#FFFFFF" d="M787.733,489.678c-9.366-3.967-20.11-2.884-28.497,2.883l-42.75,29.427l3.076,4.473l40.302-27.738
				c8.386-5.768,19.13-6.858,28.496-2.894l18.645,7.9l2.114-4.997L787.733,489.678z"/>
			<path fill="#313C46" d="M718.307,527.319l-3.085-4.461c-0.475-0.698-0.304-1.659,0.405-2.135l42.75-29.428
				c8.862-6.1,20.061-7.233,29.953-3.024l21.386,9.044c0.386,0.182,0.678,0.484,0.819,0.839c0.162,0.385,0.152,0.81,0,1.174
				l-2.124,4.998c-0.333,0.778-1.234,1.143-2.013,0.809l-18.634-7.891c-8.943-3.783-19.038-2.762-27.031,2.741l-40.302,27.729
				C719.733,528.199,718.783,528.018,718.307,527.319z M718.621,522.383l1.335,1.942l39.039-26.869
				c8.861-6.09,20.06-7.232,29.962-3.045l17.229,7.305l0.921-2.166l-19.97-8.456c-8.932-3.794-19.028-2.771-27.03,2.731
				L718.621,522.383z"/>
		</g>
		<g>
			<path fill="#FFFFFF" d="M811.941,506.024l2.368-5.361c0.373-0.85-0.01-1.831-0.86-2.205l-10.653-4.704
				c-0.849-0.374-1.84,0.01-2.215,0.86l-2.356,5.361c-0.374,0.84,0.01,1.831,0.851,2.205l10.661,4.704
				C810.576,507.259,811.568,506.875,811.941,506.024z"/>
			<path fill="#313C46" d="M797.102,502.475c-0.638-0.931-0.738-2.095-0.283-3.126l2.356-5.361c0.719-1.609,2.621-2.348,4.229-1.649
				l10.662,4.714c1.548,0.688,2.337,2.661,1.649,4.218l-2.378,5.373c-0.354,0.798-0.981,1.396-1.79,1.709
				c-0.8,0.304-1.67,0.283-2.438-0.081l-10.662-4.693C797.9,503.334,797.445,502.96,797.102,502.475z M812.914,500.036
				l-10.745-4.886l-2.538,5.584c0.021,0.021,0.04,0.04,0.061,0.051l10.662,4.693L812.914,500.036z"/>
		</g>
	</g>
	<g>
		<g>
			<path fill="#FFFFFF" d="M846.387,574.905c0.365,10.167-4.49,19.817-12.877,25.583l-42.75,29.418l-3.077-4.461l40.304-27.738
				c8.376-5.766,13.232-15.417,12.877-25.584l-0.708-20.231l5.413-0.193L846.387,574.905z"/>
			<path fill="#313C46" d="M786.813,624.171l40.302-27.729c7.992-5.503,12.555-14.567,12.221-24.269l-0.718-20.231
				c-0.03-0.84,0.627-1.549,1.478-1.579l5.422-0.202c0.395-0.01,0.799,0.131,1.092,0.415c0.283,0.263,0.465,0.647,0.495,1.071
				l0.81,23.196c0.396,10.754-4.662,20.81-13.534,26.909l-42.751,29.419c-0.698,0.484-1.648,0.302-2.135-0.396l-3.075-4.471
				C785.944,625.618,786.115,624.656,786.813,624.171z M832.649,599.225c7.991-5.503,12.554-14.567,12.2-24.269l-0.77-21.669
				l-2.347,0.082l0.668,18.703c0.374,10.743-4.693,20.799-13.545,26.898l-39.039,26.859l1.336,1.952L832.649,599.225z"/>
		</g>
		<g>
			<path fill="#FFFFFF" d="M839.762,546.459l5.856-0.294c0.921-0.051,1.71,0.657,1.751,1.579l0.586,11.643
				c0.051,0.921-0.657,1.71-1.589,1.751l-5.846,0.293c-0.922,0.051-1.711-0.657-1.762-1.588l-0.586-11.634
				C838.132,547.288,838.84,546.5,839.762,546.459z"/>
			<path fill="#313C46" d="M837.232,559.934l-0.578-11.644c-0.06-0.84,0.233-1.659,0.8-2.296c0.576-0.647,1.366-1.022,2.236-1.073
				l5.867-0.293c1.699-0.091,3.258,1.355,3.35,3.045l0.597,11.644c0.07,1.76-1.295,3.268-3.057,3.359l-5.846,0.282
				c-1.124,0.062-2.176-0.445-2.812-1.375C837.444,561.097,837.263,560.521,837.232,559.934z M839.711,548.128l0.576,11.634
				c0,0.03,0.01,0.061,0.021,0.081l6.119-0.374l-0.728-11.786L839.711,548.128z"/>
		</g>
	</g>
	<path fill="#313C46" d="M724.377,630.614l-32.26-46.877c-12.063-17.531-7.623-41.598,9.914-53.666l22.853-15.731l4.815,6.99
		l-22.863,15.731c-13.671,9.418-17.136,28.193-7.729,41.859l32.262,46.889c9.407,13.667,28.192,17.137,41.859,7.729l22.862-15.73
		l4.805,6.99l-22.852,15.73C760.512,652.588,736.444,648.146,724.377,630.614z"/>
	<g>
		<path fill="#FFFFFF" d="M730.79,612.427l-16.398-23.825c-1.668-2.427-5.027-3.054-7.455-1.386l-9.874,6.799
			c-2.427,1.669-3.05,5.027-1.376,7.455l16.399,23.834c1.669,2.428,5.027,3.046,7.456,1.375l9.873-6.797
			C731.843,618.213,732.459,614.854,730.79,612.427z"/>
		<path fill="#313C46" d="M709.749,626.912l-16.397-23.833c-2.56-3.723-1.619-8.832,2.104-11.391l9.882-6.799
			c3.713-2.559,8.821-1.618,11.382,2.104l16.397,23.823c2.569,3.733,1.619,8.842-2.104,11.4l-9.862,6.799
			C717.428,631.575,712.308,630.635,709.749,626.912z M712.057,590.211c-0.79-1.153-2.368-1.446-3.511-0.657l-9.874,6.798
			c-1.132,0.779-1.437,2.387-0.647,3.521l16.388,23.823c0.789,1.133,2.398,1.427,3.521,0.647l9.874-6.788
			c1.152-0.789,1.437-2.367,0.647-3.521L712.057,590.211z"/>
	</g>
	<g>
		<g>
			<polygon fill="#FFFFFF" points="488.672,503.536 496.623,492.914 470.761,473.543 462.81,484.164 			"/>
			<path fill="#313C46" d="M461.04,484.417l9.469-12.635l27.88,20.879l-9.463,12.645L461.04,484.417z M471.014,475.312l-6.434,8.599
				l23.838,17.855l6.434-8.588L471.014,475.312z"/>
		</g>
		
			<rect x="459.466" y="477.25" transform="matrix(-0.5993 0.8005 -0.8005 -0.5993 1128.9681 391.9865)" fill="#E6E6E6" width="13.825" height="2.598"/>
		<g>
			<polygon fill="#FFFFFF" points="460.235,487.887 473.609,470.032 471.121,468.16 457.747,486.015 			"/>
			<path fill="#313C46" d="M456.64,486.177l14.319-19.119l3.753,2.812l-14.314,19.119L456.64,486.177z M471.277,469.273
				l-12.428,16.59l1.229,0.921l12.428-16.591L471.277,469.273z"/>
		</g>
		<polygon fill="#313C46" points="558.579,549.494 555.959,543.777 507.356,507.371 505.561,509.769 		"/>
		<g>
			<polygon fill="#FFFFFF" points="532.657,535.513 539.682,526.136 533.734,521.685 526.708,531.062 			"/>
			<path fill="#313C46" d="M524.943,531.314l8.538-11.4l7.967,5.969l-8.539,11.4L524.943,531.314z M533.987,523.455l-5.508,7.354
				l3.925,2.933l5.508-7.343L533.987,523.455z"/>
		</g>
		<polygon fill="#FFFFFF" points="524.073,534.927 536.698,518.063 495.632,487.311 483.007,504.163 		"/>
		
			<rect x="506.812" y="500.005" transform="matrix(-0.5995 0.8003 -0.8003 -0.5995 1240.0364 412.2914)" fill="#F06024" width="20.121" height="32.737"/>
		<path fill="#313C46" d="M481.241,504.416l14.137-18.876l43.09,32.27l-14.142,18.888L481.241,504.416z M495.89,489.081
			l-11.113,14.83l39.038,29.245l11.112-14.83L495.89,489.081z"/>
		<g>
			<polygon fill="#FFFFFF" points="479.309,509.545 499.764,482.241 495.95,479.39 475.496,506.691 			"/>
			<path fill="#313C46" d="M473.726,506.945l21.972-29.326l5.837,4.37l-21.972,29.326L473.726,506.945z M496.204,481.159
				l-18.938,25.28l1.791,1.346l18.937-25.29L496.204,481.159z"/>
		</g>
		<g>
			<g>
				<g>
					<polygon fill="#2E556B" points="531.584,519.763 534.154,516.333 534.482,516.576 531.913,520.005 					"/>
					<polygon fill="#313C46" points="530.886,519.863 534.053,515.636 535.181,516.484 532.014,520.713 					"/>
				</g>
				<g>
					<polygon fill="#2E556B" points="528.469,517.426 531.038,513.997 531.367,514.249 528.797,517.679 					"/>
					<polygon fill="#313C46" points="527.771,517.526 530.937,513.299 532.065,514.148 528.898,518.377 					"/>
				</g>
				<g>
					<polygon fill="#2E556B" points="525.494,515.2 528.069,511.771 528.393,512.023 525.823,515.442 					"/>
					
						<rect x="524.305" y="512.904" transform="matrix(-0.5994 0.8004 -0.8004 -0.5994 1253.9194 399.6852)" fill="#313C46" width="5.283" height="1.416"/>
				</g>
				<g>
					
						<rect x="521.91" y="511.24" transform="matrix(-0.5996 0.8003 -0.8003 -0.5996 1247.5771 398.6698)" fill="#2E556B" width="4.285" height="0.405"/>
					<polygon fill="#313C46" points="521.903,513.137 525.075,508.908 526.197,509.748 523.031,513.977 					"/>
				</g>
				<g>
					<polygon fill="#2E556B" points="519.485,510.698 522.055,507.27 522.384,507.512 519.814,510.941 					"/>
					<polygon fill="#313C46" points="518.788,510.8 521.954,506.571 523.082,507.41 519.911,511.639 					"/>
				</g>
				<g>
					
						<rect x="515.82" y="506.678" transform="matrix(-0.5996 0.8003 -0.8003 -0.5996 1234.1846 396.2466)" fill="#2E556B" width="4.285" height="0.404"/>
					<polygon fill="#313C46" points="515.813,508.574 518.985,504.346 520.107,505.195 516.941,509.424 					"/>
				</g>
				<g>
					
						<rect x="512.677" y="504.318" transform="matrix(-0.5997 0.8002 -0.8002 -0.5997 1227.2841 395.0882)" fill="#2E556B" width="4.285" height="0.409"/>
					<polygon fill="#313C46" points="512.667,506.217 515.839,501.988 516.962,502.839 513.795,507.067 					"/>
				</g>
				<g>
					<polygon fill="#2E556B" points="510.254,503.779 512.824,500.35 513.148,500.603 510.579,504.031 					"/>
					<polygon fill="#313C46" points="509.551,503.881 512.723,499.651 513.846,500.501 510.68,504.729 					"/>
				</g>
				<g>
					
						<rect x="506.585" y="499.758" transform="matrix(-0.5997 0.8002 -0.8002 -0.5997 1213.8881 392.6656)" fill="#2E556B" width="4.285" height="0.404"/>
					<polygon fill="#313C46" points="506.578,501.654 509.744,497.427 510.877,498.276 507.705,502.505 					"/>
				</g>
			</g>
			<g>
				<polygon fill="#2E556B" points="503.927,499.045 506.496,495.615 506.825,495.858 504.256,499.287 				"/>
				<polygon fill="#313C46" points="503.229,499.146 506.396,494.918 507.523,495.767 504.357,499.996 				"/>
			</g>
			<g>
				<polygon fill="#2E556B" points="500.811,496.708 503.38,493.279 503.709,493.532 501.14,496.961 				"/>
				<polygon fill="#313C46" points="500.113,496.809 503.28,492.581 504.407,493.431 501.241,497.659 				"/>
			</g>
		</g>
	</g>
	<g>
		<g>
			<polygon fill="#FFFFFF" points="911.626,577.161 922.016,589.877 953.001,564.557 942.602,551.841 			"/>
			<path fill="#313C46" d="M942.824,549.646l12.372,15.134l-33.404,27.293l-12.372-15.134L942.824,549.646z M950.795,564.334
				l-8.416-10.287l-28.558,23.337l8.416,10.288L950.795,564.334z"/>
		</g>
		
			<rect x="939.73" y="556.198" transform="matrix(-0.6326 -0.7745 0.7745 -0.6326 1116.1697 1645.0977)" fill="#E6E6E6" width="17.112" height="3.213"/>
		<g>
			
				<rect x="935.32" y="555.19" transform="matrix(-0.6327 -0.7744 0.7744 -0.6327 1118.1453 1644.6144)" fill="#FFFFFF" width="27.613" height="3.853"/>
			<path fill="#313C46" d="M942.015,543.828l18.715,22.903l-4.503,3.672L937.523,547.5L942.015,543.828z M957.979,566.448
				l-16.237-19.868l-1.467,1.204l16.236,19.868L957.979,566.448z"/>
		</g>
		<polygon fill="#313C46" points="835.573,647.509 843.221,646.052 901.449,598.476 899.103,595.603 		"/>
		<g>
			<polygon fill="#FFFFFF" points="860.084,620.509 869.27,631.738 876.392,625.92 867.216,614.682 			"/>
			<path fill="#313C46" d="M867.439,612.487l11.158,13.656l-9.551,7.8l-11.157-13.657L867.439,612.487z M874.187,625.698
				l-7.192-8.811l-4.705,3.844l7.193,8.801L874.187,625.698z"/>
		</g>
		<polygon fill="#FFFFFF" points="863.362,610.362 879.861,630.554 929.057,590.363 912.557,570.161 		"/>
		<polygon fill="#F06024" points="864.222,610.413 879.983,629.705 911.372,604.061 895.602,584.769 		"/>
		<path fill="#313C46" d="M912.769,567.966l18.482,22.609l-51.612,42.185l-18.481-22.62L912.769,567.966z M926.851,590.14
			l-14.526-17.773l-46.768,38.219l14.518,17.774L926.851,590.14z"/>
		<g>
			<polygon fill="#FFFFFF" points="907.174,564.112 933.912,596.827 938.484,593.095 911.748,560.378 			"/>
			<path fill="#313C46" d="M911.97,558.183l28.71,35.134l-6.99,5.716l-28.71-35.133L911.97,558.183z M936.278,592.871
				l-24.754-30.287l-2.145,1.75l24.754,30.298L936.278,592.871z"/>
		</g>
		<g>
			<g>
				<g>
					
						<rect x="878.173" y="625.867" transform="matrix(-0.6319 -0.7751 0.7751 -0.6319 952.1124 1704.453)" fill="#2E556B" width="5.299" height="0.511"/>
					<polygon fill="#313C46" points="879.427,623.038 883.563,628.105 882.219,629.208 878.081,624.141 					"/>
				</g>
				<g>
					<polygon fill="#2E556B" points="883.078,620.853 886.437,624.97 886.043,625.283 882.685,621.176 					"/>
					<polygon fill="#313C46" points="883.159,619.982 887.307,625.051 885.951,626.153 881.813,621.085 					"/>
				</g>
				<g>
					
						<rect x="885.468" y="619.91" transform="matrix(-0.633 -0.7742 0.7742 -0.633 970.1823 1700.2706)" fill="#2E556B" width="5.306" height="0.509"/>
					<polygon fill="#313C46" points="886.721,617.079 890.857,622.138 889.513,623.25 885.375,618.182 					"/>
				</g>
				<g>
					
						<rect x="888.929" y="617.078" transform="matrix(-0.6331 -0.7741 0.7741 -0.6331 978.1508 1698.3145)" fill="#2E556B" width="5.305" height="0.51"/>
					<polygon fill="#313C46" points="890.19,614.246 894.327,619.315 892.982,620.417 888.835,615.35 					"/>
				</g>
				<g>
					
						<rect x="892.669" y="614.022" transform="matrix(-0.632 -0.775 0.775 -0.632 985.075 1696.348)" fill="#2E556B" width="5.299" height="0.511"/>
					<polygon fill="#313C46" points="893.923,611.191 898.061,616.26 896.715,617.363 892.577,612.294 					"/>
				</g>
				<g>
					<polygon fill="#2E556B" points="897.393,609.158 900.751,613.266 900.356,613.579 897.008,609.472 					"/>
					
						<rect x="895.612" y="610.5" transform="matrix(-0.6332 -0.774 0.774 -0.6332 994.8638 1694.209)" fill="#313C46" width="6.535" height="1.739"/>
				</g>
				<g>
					
						<rect x="899.996" y="608.034" transform="matrix(-0.6331 -0.7741 0.7741 -0.6331 1003.2255 1692.1122)" fill="#2E556B" width="5.305" height="0.51"/>
					<polygon fill="#313C46" points="901.247,605.202 905.395,610.271 904.039,611.374 899.901,606.306 					"/>
				</g>
				<g>
					<polygon fill="#2E556B" points="904.898,603.028 908.258,607.136 907.862,607.449 904.504,603.342 					"/>
					<polygon fill="#313C46" points="904.979,602.148 909.127,607.217 907.771,608.319 903.635,603.261 					"/>
				</g>
				<g>
					
						<rect x="907.288" y="602.075" transform="matrix(-0.6329 -0.7742 0.7742 -0.6329 1019.4954 1688.0515)" fill="#2E556B" width="5.306" height="0.51"/>
					<polygon fill="#313C46" points="908.55,599.245 912.688,604.303 911.332,605.416 907.194,600.347 					"/>
				</g>
			</g>
			
		</g>
	</g>
	
	
	<g>
		<polygon fill="#FFFFFF" points="1120.169,792.088 1013.516,700.851 1136.79,556.747 1243.444,647.975 		"/>
		<path fill="#313C46" d="M1010.794,701.063l1.254-1.467l124.53-145.581l1.466,1.254l108.122,92.503l-1.255,1.466l-124.529,145.581
			l-1.457-1.265L1010.794,701.063z M1137.003,559.469l-120.767,141.169l103.721,88.719l120.767-141.16L1137.003,559.469z"/>
	</g>
	
	
	
	
	<g>
		<g>
			<path fill="#FFFFFF" d="M635.29,562.098c0.203,0,0.399-0.01,0.597-0.029l-0.05-13.586c-0.197-0.021-0.395-0.03-0.592-0.03
				c-0.203,0-0.4,0.01-0.597,0.03l0.051,13.586C634.895,562.088,635.092,562.098,635.29,562.098z"/>
			<path fill="#313C46" d="M636.6,562.727l-0.652,0.049c-0.218,0.021-0.436,0.031-0.652,0.041c-0.223,0-0.44-0.021-0.658-0.03
				l-0.653-0.06l-0.055-14.892l0.652-0.061c0.217-0.021,0.44-0.03,0.657-0.041c0.218,0,0.436,0.021,0.652,0.03l0.658,0.051
				L636.6,562.727z"/>
		</g>
		<path fill="#FA6B3A" d="M659.896,587.46l-18.239-46.271c-0.531-1.345-2.048-2.004-3.394-1.478l-80.605,31.775
			c-1.34,0.525-2.003,2.043-1.472,3.389l18.239,46.281c0.531,1.345,2.049,2.002,3.394,1.467l80.605-31.765
			C659.765,590.322,660.428,588.805,659.896,587.46z"/>
		<path fill="#313C46" d="M658.845,591.921l-80.605,31.765c-1.932,0.769-4.117-0.182-4.876-2.115L555.125,575.3
			c-0.759-1.932,0.188-4.117,2.119-4.876l80.6-31.774c1.927-0.759,4.117,0.192,4.871,2.114l18.244,46.281
			C661.718,588.978,660.767,591.162,658.845,591.921z M558.079,572.548c-0.754,0.294-1.128,1.154-0.83,1.913l18.245,46.271
			c0.298,0.759,1.153,1.133,1.907,0.829l80.604-31.765c0.754-0.303,1.128-1.153,0.83-1.911l-18.245-46.281
			c-0.293-0.749-1.153-1.123-1.907-0.83L558.079,572.548z"/>
		<path fill="#FFFFFF" d="M635.29,562.098c0.203,0,0.399-0.01,0.597-0.029l-0.05-13.586c-0.197-0.021-0.395-0.03-0.592-0.03
			c-0.203,0-0.4,0.01-0.597,0.03l0.051,13.586C634.895,562.088,635.092,562.098,635.29,562.098z"/>
		<g>
			<path fill="#FFFFFF" d="M648.223,565.325c-0.278-0.708-1.093-1.062-1.806-0.779l-76.978,30.338
				c-0.718,0.284-1.067,1.093-0.79,1.812c0.284,0.719,1.093,1.072,1.811,0.789l76.978-30.348
				C648.157,566.854,648.506,566.044,648.223,565.325z"/>
			<path fill="#313C46" d="M647.702,567.804l-76.979,30.338c-1.082,0.436-2.311-0.101-2.736-1.184
				c-0.424-1.081,0.107-2.306,1.189-2.731l76.979-30.348c1.083-0.426,2.307,0.111,2.731,1.194
				C649.315,566.146,648.785,567.379,647.702,567.804z M569.696,595.552c-0.349,0.142-0.521,0.537-0.384,0.881
				c0.142,0.354,0.536,0.525,0.885,0.385l76.984-30.339c0.349-0.142,0.516-0.536,0.379-0.891c-0.137-0.344-0.531-0.515-0.88-0.384
				L569.696,595.552z"/>
		</g>
		<path fill="#313C46" d="M638.031,562.291h-0.005c-0.663,0.253-1.36,0.425-2.079,0.484l-0.774,0.071l-0.05-15.144l0.774,0.061
			c3.859,0.324,6.894,3.611,6.904,7.486C642.816,558.376,640.939,561.138,638.031,562.291z M636.594,561.238
			c2.792-0.606,4.795-3.125,4.78-5.988c-0.01-2.874-2.074-5.352-4.821-5.949L636.594,561.238z"/>
		<path fill="#FFFFFF" d="M642.092,555.25c-0.015-3.571-2.767-6.484-6.256-6.768l0.05,13.586
			C639.376,561.754,642.103,558.821,642.092,555.25z"/>
		<path fill="#313C46" d="M635.411,562.847l-0.774-0.061c-3.92-0.334-6.895-3.55-6.909-7.485c-0.01-3.126,1.866-5.888,4.774-7.031
			c0.663-0.263,1.366-0.435,2.079-0.495l0.779-0.071L635.411,562.847z M633.023,549.595c-2.357,0.931-3.875,3.166-3.87,5.706
			c0.01,2.923,2.039,5.361,4.826,5.948l-0.04-11.938C633.625,549.383,633.322,549.474,633.023,549.595z"/>
		<path fill="#313C46" d="M624.854,566.681l-11.36-10.015l0.566-0.536c0.703-0.667,1.522-1.193,2.428-1.548
			c2.645-1.052,5.614-0.525,7.749,1.346c2.908,2.569,3.378,7.011,1.082,10.126L624.854,566.681z M615.644,556.656l8.948,7.89
			c1.366-2.458,0.86-5.645-1.3-7.546C621.172,555.128,617.915,554.997,615.644,556.656z"/>
		<path fill="#313C46" d="M622.012,568.593L622.012,568.593c-2.646,1.043-5.615,0.526-7.744-1.355
			c-2.903-2.56-3.378-7.01-1.077-10.116l0.465-0.627l11.355,10.004l-0.561,0.547C623.742,567.713,622.922,568.239,622.012,568.593z
			 M613.914,558.618c-1.361,2.469-0.86,5.646,1.3,7.548c1.725,1.526,4.133,1.951,6.277,1.102h0.005
			c0.49-0.192,0.945-0.444,1.371-0.759L613.914,558.618z"/>
		<g>
			<path fill="#FFFFFF" d="M624.374,566.104c0.132-0.152,0.253-0.314,0.37-0.466l-10.192-8.993
				c-0.142,0.143-0.284,0.273-0.415,0.426c-0.131,0.151-0.253,0.313-0.375,0.464l10.192,8.993
				C624.102,566.388,624.238,566.246,624.374,566.104z"/>
			<path fill="#313C46" d="M623.97,567.49l-11.158-9.843l0.375-0.526c0.131-0.172,0.268-0.354,0.419-0.516
				c0.142-0.172,0.294-0.324,0.451-0.465l0.47-0.466l11.178,9.853l-0.385,0.526c-0.126,0.172-0.263,0.354-0.409,0.516
				c-0.147,0.173-0.309,0.324-0.465,0.476L623.97,567.49z"/>
		</g>
		<path fill="#313C46" d="M606.1,574.875L606.1,574.875c-0.667,0.264-1.366,0.425-2.084,0.496l-0.774,0.061l-0.055-15.145
			l0.773,0.071c3.93,0.324,6.899,3.541,6.914,7.477C610.884,570.961,609.008,573.722,606.1,574.875z M604.663,573.822
			c2.817-0.606,4.795-3.126,4.78-5.978c-0.01-2.884-2.074-5.362-4.826-5.948L604.663,573.822z"/>
		<path fill="#313C46" d="M603.484,575.432l-0.774-0.061c-3.93-0.324-6.899-3.541-6.909-7.487c-0.015-3.124,1.856-5.886,4.77-7.029
			c0.667-0.263,1.366-0.436,2.079-0.496l0.779-0.071L603.484,575.432z M601.092,562.18c-2.357,0.93-3.875,3.166-3.865,5.704
			c0.005,2.925,2.033,5.362,4.82,5.949l-0.041-11.937C601.699,561.967,601.391,562.059,601.092,562.18z"/>
		<g>
			<path fill="#FFFFFF" d="M603.358,574.683c0.202,0,0.399-0.01,0.597-0.03l-0.051-13.586c-0.197-0.021-0.395-0.03-0.592-0.03
				c-0.202,0-0.399,0.02-0.597,0.03l0.051,13.597C602.964,574.673,603.161,574.683,603.358,574.683z"/>
			<path fill="#313C46" d="M604.668,575.31l-0.652,0.062c-0.212,0.02-0.435,0.03-0.652,0.03c-0.223,0-0.44-0.011-0.653-0.03
				l-0.657-0.051l-0.051-14.901l0.647-0.061c0.217-0.021,0.435-0.03,0.658-0.03s0.44,0.01,0.652,0.03l0.657,0.051L604.668,575.31z"
				/>
		</g>
		<path fill="#313C46" d="M592.23,579.539l-11.36-10.016l0.566-0.536c0.703-0.668,1.523-1.193,2.433-1.548
			c2.646-1.042,5.615-0.526,7.744,1.355c2.909,2.56,3.384,7.011,1.082,10.117L592.23,579.539z M583.02,569.523l8.953,7.891
			c1.361-2.458,0.855-5.645-1.3-7.557C588.548,567.985,585.306,567.854,583.02,569.523z"/>
		<path fill="#313C46" d="M589.397,581.45L589.397,581.45c-2.65,1.052-5.619,0.526-7.754-1.355c-2.903-2.56-3.378-7.01-1.072-10.116
			l0.46-0.627l11.36,10.015l-0.566,0.537C591.123,580.57,590.303,581.096,589.397,581.45z M581.295,571.476
			c-1.366,2.469-0.86,5.646,1.295,7.547c1.725,1.527,4.132,1.953,6.282,1.103l0,0c0.491-0.191,0.951-0.445,1.371-0.759
			L581.295,571.476z"/>
		<g>
			<path fill="#FFFFFF" d="M591.75,578.961c0.131-0.15,0.252-0.312,0.369-0.464l-10.192-8.993c-0.142,0.142-0.284,0.282-0.415,0.434
				c-0.131,0.143-0.253,0.305-0.369,0.456l10.192,8.993C591.477,579.245,591.619,579.113,591.75,578.961z"/>
			<path fill="#313C46" d="M591.35,580.348l-11.163-9.843l0.379-0.526c0.132-0.172,0.263-0.343,0.41-0.516
				c0.146-0.162,0.298-0.323,0.455-0.466l0.476-0.465l11.173,9.853l-0.385,0.527c-0.126,0.182-0.263,0.354-0.409,0.515
				c-0.147,0.173-0.304,0.324-0.46,0.477L591.35,580.348z"/>
		</g>
		<path fill="#313C46" d="M576.07,585.911l-11.36-10.015l0.566-0.536c0.703-0.667,1.522-1.194,2.428-1.557
			c2.646-1.043,5.614-0.517,7.749,1.355c2.909,2.568,3.379,7.01,1.083,10.125L576.07,585.911z M566.859,575.888l8.947,7.889
			c1.366-2.457,0.86-5.644-1.294-7.546C572.388,574.359,569.136,574.228,566.859,575.888z"/>
		<path fill="#313C46" d="M573.232,587.824L573.232,587.824c-2.65,1.042-5.62,0.525-7.749-1.355
			c-2.903-2.561-3.379-7.011-1.077-10.117l0.46-0.627l11.361,10.005l-0.562,0.546C574.957,586.944,574.138,587.47,573.232,587.824z
			 M565.129,577.85c-1.36,2.467-0.86,5.645,1.3,7.546c1.725,1.528,4.132,1.952,6.277,1.104h0.005
			c0.491-0.193,0.946-0.445,1.371-0.759L565.129,577.85z"/>
		<g>
			<path fill="#FFFFFF" d="M575.589,585.325c0.132-0.143,0.253-0.304,0.369-0.465l-10.192-8.983
				c-0.142,0.142-0.283,0.273-0.415,0.424c-0.132,0.152-0.253,0.313-0.369,0.466l10.192,8.993
				C575.316,585.618,575.458,585.477,575.589,585.325z"/>
			<path fill="#313C46" d="M575.185,586.721l-11.164-9.843l0.385-0.526c0.126-0.183,0.263-0.354,0.41-0.515
				c0.146-0.173,0.298-0.325,0.455-0.477l0.47-0.455l11.179,9.854l-0.385,0.525c-0.126,0.173-0.263,0.344-0.41,0.517
				c-0.146,0.161-0.309,0.323-0.465,0.475L575.185,586.721z"/>
		</g>
		<path fill="#313C46" d="M575.028,612.244l-0.41-0.668c-2.023-3.298-1.168-7.688,1.948-9.995c0.531-0.384,1.112-0.708,1.725-0.95
			c2.934-1.153,6.317-0.334,8.406,2.033l0.516,0.586L575.028,612.244z M578.812,601.956c-0.496,0.202-0.966,0.465-1.396,0.779
			c-2.312,1.709-3.09,4.835-1.942,7.404l9.6-7.081C583.369,601.562,580.946,601.116,578.812,601.956z"/>
		<path fill="#313C46" d="M583.809,614.661c-2.938,1.164-6.317,0.345-8.412-2.033l-0.511-0.576l12.18-8.993l0.404,0.668
			c2.028,3.297,1.168,7.677-1.947,9.984C584.992,614.105,584.416,614.429,583.809,614.661z M577.026,612.244
			c2.094,1.831,5.346,2.022,7.653,0.313c2.312-1.7,3.09-4.836,1.942-7.395L577.026,612.244z"/>
		<g>
			<path fill="#FFFFFF" d="M586.535,603.595c-0.116-0.162-0.248-0.313-0.375-0.466l-10.936,8.073
				c0.106,0.172,0.212,0.344,0.333,0.496c0.117,0.161,0.243,0.313,0.375,0.464l10.931-8.071
				C586.763,603.918,586.656,603.757,586.535,603.595z"/>
			<path fill="#313C46" d="M575.832,613.124l-0.43-0.485c-0.146-0.172-0.283-0.334-0.415-0.507
				c-0.141-0.191-0.253-0.373-0.369-0.556l-0.339-0.556l11.983-8.843l0.435,0.486c0.142,0.162,0.278,0.323,0.41,0.495
				c0.136,0.192,0.252,0.375,0.364,0.567l0.344,0.556L575.832,613.124z"/>
		</g>
		<path fill="#313C46" d="M593.697,608.116l-0.657-0.404c-3.283-2.074-4.456-6.383-2.681-9.833c1.735-3.368,6.07-4.946,9.555-3.51
			l0.723,0.293L593.697,608.116z M594.81,595.653c-1.376,0.546-2.503,1.568-3.182,2.873c-1.32,2.569-0.632,5.716,1.533,7.517
			l5.473-10.612C597.374,595.098,596.039,595.168,594.81,595.653z"/>
		<path fill="#313C46" d="M599.828,608.35L599.828,608.35c-1.821,0.719-3.819,0.698-5.629-0.04l-0.713-0.295l6.94-13.463
			l0.657,0.414c3.328,2.104,4.481,6.322,2.675,9.822C602.918,606.417,601.522,607.672,599.828,608.35z M595.488,607.236
			c1.254,0.345,2.584,0.264,3.813-0.223l0,0c1.376-0.536,2.509-1.558,3.187-2.872c1.345-2.601,0.667-5.696-1.533-7.507
			L595.488,607.236z"/>
		<g>
			<path fill="#FFFFFF" d="M600.187,595.269c-0.177-0.09-0.359-0.171-0.541-0.242l-6.231,12.078
				c0.167,0.102,0.339,0.202,0.516,0.294c0.177,0.091,0.359,0.172,0.542,0.253l6.231-12.079
				C600.536,595.462,600.364,595.36,600.187,595.269z"/>
			<path fill="#313C46" d="M594.81,608.552l-0.602-0.242c-0.202-0.082-0.41-0.173-0.607-0.274c-0.192-0.101-0.379-0.212-0.557-0.323
				l-0.566-0.345l6.833-13.251l0.612,0.253c0.197,0.081,0.395,0.172,0.592,0.272c0.192,0.092,0.379,0.202,0.571,0.334l0.546,0.344
				L594.81,608.552z"/>
		</g>
		<path fill="#313C46" d="M615.74,602.067L615.74,602.067c-2.686,1.062-5.69,0.516-7.825-1.416
			c-2.873-2.61-3.288-7.062-0.935-10.147l0.47-0.616l11.213,10.167l-0.572,0.535C617.409,601.228,616.615,601.724,615.74,602.067z
			 M607.678,592.022c-1.401,2.438-0.941,5.634,1.194,7.566c1.735,1.567,4.168,2.013,6.348,1.153l0,0
			c0.46-0.183,0.896-0.415,1.3-0.698L607.678,592.022z"/>
		<path fill="#313C46" d="M618.507,600.236l-11.219-10.178l0.572-0.525c0.688-0.637,1.477-1.133,2.347-1.478
			c2.691-1.062,5.695-0.515,7.835,1.427c2.868,2.6,3.282,7.052,0.935,10.137L618.507,600.236z M609.438,590.089l8.836,8.013
			c1.396-2.438,0.936-5.634-1.193-7.557C614.981,588.633,611.734,588.42,609.438,590.089z"/>
		<g>
			<path fill="#FFFFFF" d="M607.925,590.474c-0.136,0.152-0.257,0.304-0.379,0.466l10.065,9.125c0.142-0.132,0.283-0.273,0.42-0.415
				c0.136-0.152,0.257-0.303,0.379-0.466l-10.065-9.125C608.204,590.19,608.057,590.333,607.925,590.474z"/>
			<path fill="#313C46" d="M617.617,601.034l-11.026-10.003l0.384-0.517c0.131-0.182,0.268-0.354,0.42-0.517
				c0.146-0.161,0.303-0.312,0.465-0.465l0.48-0.445l11.042,10.015l-0.41,0.527c-0.131,0.171-0.263,0.333-0.415,0.495
				c-0.142,0.162-0.304,0.313-0.46,0.465L617.617,601.034z"/>
		</g>
		<path fill="#313C46" d="M637.252,588.35l-15.134,0.496l0.041-0.779c0.156-2.934,2.023-5.523,4.754-6.606
			c0.805-0.313,1.654-0.484,2.52-0.515c3.874-0.122,7.269,2.781,7.729,6.626L637.252,588.35z M623.671,587.358l11.927-0.385
			c-0.693-2.722-3.242-4.693-6.116-4.603C626.635,582.451,624.177,584.637,623.671,587.358z"/>
		<path fill="#313C46" d="M632.442,595.492L632.442,595.492c-0.804,0.313-1.649,0.484-2.514,0.525
			c-3.875,0.122-7.269-2.792-7.729-6.646l-0.091-0.77l15.133-0.495l-0.04,0.779C637.045,591.819,635.173,594.409,632.442,595.492z
			 M623.762,589.978c0.693,2.732,3.243,4.705,6.116,4.604c2.833-0.08,5.306-2.266,5.806-4.987L623.762,589.978z"/>
		<g>
			<path fill="#FFFFFF" d="M636.499,588.259c-0.005-0.203-0.025-0.404-0.046-0.598l-13.581,0.445c-0.01,0.193-0.02,0.396-0.01,0.597
				c0.005,0.193,0.025,0.395,0.045,0.587l13.581-0.435C636.499,588.652,636.509,588.461,636.499,588.259z"/>
			<path fill="#313C46" d="M637.161,589.544l-14.886,0.484l-0.07-0.657c-0.03-0.212-0.051-0.424-0.056-0.647
				c-0.01-0.222-0.005-0.444,0.01-0.657l0.03-0.657l14.896-0.485l0.076,0.657c0.025,0.212,0.045,0.435,0.056,0.657
				c0.005,0.213,0,0.435-0.015,0.658L637.161,589.544z"/>
		</g>
		<path fill="#313C46" d="M648.603,589.129c-0.87,0.344-1.786,0.516-2.731,0.516c-3.875,0.011-7.183-2.994-7.532-6.858l-0.065-0.769
			l15.139-0.062l-0.061,0.779C653.119,585.568,651.258,588.076,648.603,589.129z M639.882,583.434
			c0.617,2.752,3.11,4.795,5.984,4.785c2.822-0.021,5.356-2.125,5.948-4.825L639.882,583.434z"/>
		<path fill="#313C46" d="M653.413,582.199l-15.139,0.061l0.061-0.779c0.233-2.832,2.099-5.341,4.75-6.393
			c0.87-0.334,1.791-0.517,2.731-0.517c3.874-0.021,7.182,2.994,7.531,6.85L653.413,582.199z M639.872,580.823l11.932-0.051
			c-0.617-2.741-3.11-4.785-5.983-4.774C642.993,576.008,640.464,578.122,639.872,580.823z"/>
		<g>
			<path fill="#FFFFFF" d="M639.017,582.128c0,0.203,0.015,0.405,0.036,0.598l13.586-0.051c0.015-0.192,0.03-0.395,0.03-0.597
				c0-0.203-0.015-0.396-0.036-0.587l-13.585,0.05C639.032,581.733,639.017,581.937,639.017,582.128z"/>
			<path fill="#313C46" d="M653.296,583.394l-14.886,0.05l-0.066-0.638c-0.025-0.223-0.036-0.444-0.041-0.668
				c0.005-0.222,0.016-0.445,0.031-0.657l0.056-0.657l14.896-0.061l0.061,0.658c0.015,0.222,0.03,0.435,0.036,0.657
				c0,0.223-0.016,0.435-0.031,0.657L653.296,583.394z"/>
		</g>
		<path fill="#FFFFFF" d="M628.441,555.301c0.015,3.571,2.767,6.483,6.257,6.768l-0.051-13.586
			C631.157,548.796,628.431,551.729,628.441,555.301z"/>
		<path fill="#FFFFFF" d="M623.767,556.475c-2.675-2.367-6.682-2.247-9.215,0.171l10.192,8.993
			C626.822,562.816,626.443,558.831,623.767,556.475z"/>
		<path fill="#FFFFFF" d="M614.739,566.701c2.681,2.367,6.682,2.246,9.215-0.173l-10.192-8.993
			C611.684,560.358,612.063,564.345,614.739,566.701z"/>
		<path fill="#FFFFFF" d="M610.161,567.835c-0.015-3.562-2.767-6.475-6.257-6.769l0.051,13.586
			C607.44,574.339,610.171,571.405,610.161,567.835z"/>
		<path fill="#FFFFFF" d="M596.509,567.884c0.015,3.571,2.767,6.485,6.257,6.779l-0.051-13.597
			C599.23,561.38,596.499,564.313,596.509,567.884z"/>
		<path fill="#FFFFFF" d="M591.143,569.331c-2.675-2.367-6.681-2.245-9.215,0.173l10.192,8.993
			C594.203,575.674,593.824,571.688,591.143,569.331z"/>
		<path fill="#FFFFFF" d="M582.119,579.569c2.676,2.356,6.682,2.235,9.216-0.183l-10.192-8.993
			C579.059,573.216,579.443,577.202,582.119,579.569z"/>
		<path fill="#FFFFFF" d="M574.982,575.694c-2.676-2.356-6.682-2.236-9.216,0.183l10.192,8.983
			C578.042,582.048,577.658,578.062,574.982,575.694z"/>
		<path fill="#FFFFFF" d="M565.959,585.932c2.676,2.368,6.676,2.246,9.216-0.172l-10.192-8.993
			C562.899,579.59,563.283,583.574,565.959,585.932z"/>
		<path fill="#FFFFFF" d="M576.996,602.158c-2.873,2.124-3.596,6.06-1.771,9.044l10.936-8.073
			C583.844,600.509,579.864,600.044,576.996,602.158z"/>
		<path fill="#FFFFFF" d="M585.099,613.135c2.873-2.114,3.596-6.061,1.765-9.044l-10.931,8.071
			C578.25,614.793,582.23,615.259,585.099,613.135z"/>
		<path fill="#FFFFFF" d="M590.996,598.213c-1.639,3.167-0.541,7.021,2.418,8.892l6.231-12.078
			C596.403,593.691,592.63,595.036,590.996,598.213z"/>
		<path fill="#FFFFFF" d="M603.125,604.465c1.633-3.166,0.541-7.021-2.423-8.893l-6.231,12.079
			C597.713,608.977,601.486,607.632,603.125,604.465z"/>
		<path fill="#FFFFFF" d="M608.391,600.114c2.646,2.397,6.651,2.337,9.221-0.05l-10.065-9.125
			C605.427,593.722,605.75,597.717,608.391,600.114z"/>
		<path fill="#FFFFFF" d="M617.561,590.008c-2.64-2.396-6.646-2.336-9.215,0.051l10.065,9.125
			C620.53,596.402,620.207,592.406,617.561,590.008z"/>
		<path fill="#FFFFFF" d="M629.458,581.653c-3.566,0.12-6.398,2.953-6.586,6.453l13.581-0.445
			C636.038,584.183,633.023,581.541,629.458,581.653z"/>
		<path fill="#FFFFFF" d="M629.903,595.299c3.565-0.12,6.398-2.953,6.585-6.443l-13.581,0.435
			C623.327,592.77,626.337,595.411,629.903,595.299z"/>
		<path fill="#FFFFFF" d="M645.891,588.927c3.566-0.03,6.464-2.803,6.727-6.303l-13.591,0.152
			C639.371,586.266,642.325,588.967,645.891,588.927z"/>
		<path fill="#FFFFFF" d="M645.815,575.279c-3.566,0.021-6.479,2.772-6.768,6.262l13.585-0.05
			C652.32,578.001,649.386,575.27,645.815,575.279z"/>
	</g>
	<g>
		<path fill="#FFFFFF" d="M1005.038,606.761c0.343,0.132,0.698,0.242,1.052,0.354l9.196-23.571
			c-0.334-0.161-0.668-0.323-1.012-0.455c-0.354-0.142-0.698-0.242-1.053-0.354l-9.196,23.57
			C1004.36,606.468,1004.693,606.629,1005.038,606.761z"/>
		<path fill="#313C46" d="M1006.879,608.733l-1.173-0.354c-0.386-0.11-0.769-0.232-1.153-0.374
			c-0.375-0.151-0.749-0.323-1.113-0.505l-1.092-0.536l10.075-25.848l1.173,0.344c0.385,0.112,0.779,0.243,1.164,0.385
			c0.374,0.152,0.738,0.324,1.103,0.507l1.103,0.525L1006.879,608.733z"/>
	</g>
	<path fill="#FFFFFF" d="M1005.038,606.761c0.343,0.132,0.698,0.242,1.052,0.354l9.196-23.571c-0.334-0.161-0.668-0.323-1.012-0.455
		c-0.354-0.142-0.698-0.242-1.053-0.354l-9.196,23.57C1004.36,606.468,1004.693,606.629,1005.038,606.761z"/>
	<path fill="#313C46" d="M1009.661,608.956h-0.011c-1.324,0-2.66-0.192-3.935-0.566l-1.396-0.415l10.257-26.262l1.295,0.639
		c6.465,3.187,9.479,10.955,6.849,17.673C1020.616,605.446,1015.479,608.956,1009.661,608.956z M1007.891,606.154
		c5.24,0.869,10.43-2.145,12.362-7.103c1.952-4.986,0.062-10.683-4.289-13.595L1007.891,606.154z"/>
	<path fill="#FFFFFF" d="M1021.486,599.538c2.418-6.181-0.354-13.11-6.2-15.994l-9.196,23.571
		C1012.342,608.946,1019.079,605.729,1021.486,599.538z"/>
	<path fill="#313C46" d="M1004.734,608.137l-1.295-0.637c-6.575-3.248-9.519-10.846-6.858-17.674
		c2.114-5.432,7.253-8.932,13.069-8.932c1.336,0,2.66,0.191,3.945,0.565l1.386,0.405L1004.734,608.137z M1009.65,583.555
		c-4.724,0-8.871,2.843-10.601,7.232c-1.974,5.079-0.132,10.683,4.298,13.606l8.073-20.707
		C1010.834,583.595,1010.247,583.555,1009.65,583.555z"/>
	<path fill="#313C46" d="M950.3,638.465l-12.837-25.098l1.345-0.547c1.68-0.688,3.45-1.031,5.271-1.031
		c5.29,0,10.085,2.923,12.494,7.638c3.287,6.424,1.071,14.445-5.039,18.278L950.3,638.465z M941.185,614.813l10.116,19.787
		c4.037-3.339,5.342-9.195,2.903-13.971C951.808,615.947,946.254,613.487,941.185,614.813z"/>
	<path fill="#313C46" d="M944.078,639.84L944.078,639.84c-5.301,0-10.086-2.923-12.493-7.638c-3.287-6.423-1.072-14.445,5.049-18.27
		l1.224-0.768l12.836,25.098l-1.345,0.546C947.67,639.496,945.889,639.84,944.078,639.84z M936.855,617.039
		c-4.047,3.328-5.342,9.186-2.903,13.95c1.942,3.824,5.826,6.201,10.126,6.201l0,0c0.981,0,1.952-0.132,2.894-0.375L936.855,617.039
		z"/>
	<g>
		<path fill="#FFFFFF" d="M949.864,637.129c0.334-0.171,0.648-0.364,0.961-0.556l-11.521-22.519
			c-0.345,0.131-0.678,0.283-1.013,0.455c-0.332,0.162-0.647,0.354-0.959,0.546l11.521,22.529
			C949.187,637.442,949.531,637.302,949.864,637.129z"/>
		<path fill="#313C46" d="M948.216,639.264l-12.605-24.672l1.003-0.648c0.353-0.223,0.708-0.426,1.081-0.617
			c0.355-0.191,0.729-0.354,1.104-0.496l1.133-0.475l12.626,24.692l-1.023,0.647c-0.343,0.224-0.697,0.425-1.061,0.618
			c-0.365,0.182-0.749,0.354-1.124,0.505L948.216,639.264z"/>
	</g>
	<path fill="#313C46" d="M1014.628,640.377l-26.556-9.469l0.598-1.315c2.276-4.978,7.284-8.193,12.746-8.193
		c1.609,0,3.196,0.283,4.725,0.818c6.797,2.428,10.684,9.783,8.851,16.763L1014.628,640.377z M991.775,629.4l20.932,7.466
		c0.657-5.179-2.419-10.338-7.457-12.129C1000.254,622.926,994.518,625.021,991.775,629.4z"/>
	<path fill="#313C46" d="M1001.416,649.471L1001.416,649.471c-1.608,0-3.187-0.273-4.713-0.809
		c-6.798-2.428-10.684-9.803-8.853-16.783l0.374-1.385l26.546,9.468l-0.598,1.315
		C1011.897,646.265,1006.889,649.471,1001.416,649.471z M990.146,633.993c-0.668,5.2,2.398,10.359,7.446,12.149
		c4.956,1.801,10.733-0.293,13.464-4.673L990.146,633.993z"/>
	<g>
		<path fill="#FFFFFF" d="M1013.385,639.709c0.131-0.354,0.23-0.708,0.322-1.062l-23.822-8.509
			c-0.162,0.335-0.305,0.678-0.426,1.022c-0.131,0.354-0.232,0.709-0.323,1.062l23.822,8.509
			C1013.11,640.397,1013.263,640.063,1013.385,639.709z"/>
		<path fill="#313C46" d="M1013.646,642.39l-26.109-9.327l0.323-1.184c0.092-0.385,0.202-0.769,0.345-1.163
			c0.132-0.384,0.304-0.769,0.465-1.123l0.507-1.112l26.129,9.326l-0.314,1.185c-0.101,0.385-0.221,0.788-0.353,1.174
			c-0.143,0.384-0.305,0.768-0.477,1.122L1013.646,642.39z"/>
	</g>
	<path fill="#FFFFFF" d="M997.814,590.312c-2.406,6.181,0.365,13.11,6.211,15.993l9.196-23.57
		C1006.96,580.904,1000.233,584.121,997.814,590.312z"/>
	<path fill="#FFFFFF" d="M955.388,620.033c-3.024-5.918-10.045-8.437-16.084-5.979l11.521,22.519
		C956.349,633.113,958.412,625.95,955.388,620.033z"/>
	<path fill="#FFFFFF" d="M932.768,631.605c3.025,5.908,10.047,8.438,16.086,5.979l-11.521-22.529
		C931.809,618.516,929.744,625.688,932.768,631.605z"/>
	<path fill="#FFFFFF" d="M1005.696,623.473c-6.263-2.235-13.101,0.739-15.812,6.666l23.822,8.509
		C1015.367,632.345,1011.947,625.708,1005.696,623.473z"/>
	<path fill="#FFFFFF" d="M997.147,647.396c6.262,2.236,13.1-0.738,15.811-6.665l-23.822-8.509
		C987.477,638.535,990.896,645.172,997.147,647.396z"/>
	<path fill="#313C46" d="M974.579,556.747l9.245-26.636l1.325,0.587c4.987,2.235,8.245,7.212,8.296,12.675
		c0.01,1.609-0.264,3.207-0.789,4.735c-2.368,6.817-9.691,10.764-16.682,8.993L974.579,556.747z M985.361,533.804l-7.292,20.991
		c5.188,0.607,10.317-2.499,12.067-7.558C991.908,542.23,989.763,536.504,985.361,533.804z"/>
	<path fill="#313C46" d="M965.372,543.616L965.372,543.616c-0.01-1.608,0.244-3.196,0.77-4.724
		c2.377-6.819,9.712-10.774,16.702-8.993l1.396,0.354l-9.246,26.636l-1.325-0.597C968.67,554.057,965.423,549.079,965.372,543.616z
		 M980.749,532.216c-5.199-0.628-10.338,2.488-12.089,7.546c-1.75,4.977,0.396,10.733,4.796,13.424L980.749,532.216z"/>
	<g>
		<path fill="#FFFFFF" d="M975.236,555.502c0.353,0.122,0.708,0.224,1.062,0.304l8.305-23.894c-0.333-0.152-0.678-0.294-1.021-0.415
			c-0.355-0.121-0.708-0.222-1.073-0.313l-8.306,23.903C974.538,555.229,974.881,555.382,975.236,555.502z"/>
		<path fill="#313C46" d="M972.556,555.785l9.104-26.19l1.185,0.314c0.383,0.091,0.769,0.202,1.173,0.333
			c0.385,0.132,0.769,0.294,1.133,0.456l1.113,0.496l-9.115,26.21l-1.183-0.313c-0.386-0.091-0.789-0.202-1.174-0.333
			c-0.385-0.133-0.77-0.294-1.134-0.466L972.556,555.785z"/>
	</g>
	<path fill="#FFFFFF" d="M991.401,547.673c2.185-6.282-0.849-13.09-6.799-15.761l-8.305,23.894
		C982.62,557.415,989.227,553.945,991.401,547.673z"/>
	<path fill="#FFFFFF" d="M967.405,539.327c-2.185,6.271,0.851,13.09,6.798,15.76l8.306-23.903
		C976.197,529.585,969.581,533.055,967.405,539.327z"/>
	<g>
		<path fill="#F06024" d="M1172.187,353.626c3.914,1.406,8.285-0.658,9.691-4.572c1.406-3.925-0.657-8.285-4.573-9.691
			l-11.472-4.117l-5.118,14.264L1172.187,353.626z"/>
		<path fill="#313C46" d="M1177.648,338.856c4.179,1.518,6.354,6.161,4.846,10.339c-0.729,2.033-2.205,3.652-4.168,4.582
			c-1.962,0.921-4.157,1.032-6.181,0.304l-11.998-4.299l5.474-15.245L1177.648,338.856z M1161.292,349.235l11.157,4.006
			c1.801,0.648,3.753,0.557,5.503-0.273c1.75-0.819,3.065-2.266,3.713-4.077c1.335-3.722-0.607-7.85-4.319-9.205l0.151-0.415
			l-0.182,0.405l-11.157-4.006L1161.292,349.235z"/>
		<g>
			<path fill="#FFFFFF" d="M1144.519,335.569c-1.416,3.965,0.657,8.366,4.623,9.782l11.573,4.158l5.169-14.406l-11.572-4.158
				C1150.346,329.529,1145.945,331.603,1144.519,335.569z"/>
			<path fill="#313C46" d="M1166.45,334.84l-5.463,15.235l-11.997-4.3c-4.209-1.537-6.383-6.181-4.887-10.359
				c0.729-2.023,2.205-3.651,4.168-4.582c1.964-0.921,4.158-1.032,6.191-0.304L1166.45,334.84z M1160.452,348.942l4.865-13.565
				l-11.158-4.006c-1.801-0.647-3.763-0.557-5.503,0.273c-1.75,0.82-3.065,2.266-3.713,4.077c-1.336,3.722,0.598,7.85,4.319,9.206
				L1160.452,348.942z"/>
		</g>
	</g>
	<g>
		<path fill="#313C46" d="M186.833,598.385L71.449,484.134c-1.938-1.911-1.953-5.049-0.031-6.98L219.28,327.809
			c1.922-1.942,5.053-1.962,6.991-0.04L341.66,442.011c1.927,1.911,1.942,5.047,0.025,6.989L193.818,598.334
			C191.896,600.276,188.765,600.297,186.833,598.385z M76.223,480.623l114.074,112.946l146.578-148.05L222.801,332.574
			L76.223,480.623z"/>
		<path fill="#FFFFFF" d="M189.16,594.308L75.49,481.767c-0.773-0.769-0.784-2.014-0.01-2.792l145.662-147.119
			c0.769-0.779,2.023-0.789,2.802-0.021l113.665,112.542c0.773,0.77,0.779,2.023,0.01,2.803L191.957,594.298
			C191.188,595.077,189.933,595.077,189.16,594.308z"/>
		<g>
			<g>
				<path fill="#F28257" d="M265.83,442.739c-10.263,10.358-26.98,10.438-37.339,0.182c-10.359-10.258-10.445-26.97-0.182-37.329
					c10.258-10.369,26.97-10.449,37.329-0.191C276.001,415.658,276.087,432.38,265.83,442.739z"/>
				<path fill="#313C46" d="M247.069,451.601c-7.278,0-14.137-2.823-19.307-7.941c-5.209-5.159-8.093-12.038-8.133-19.362
					c-0.035-7.324,2.787-14.224,7.946-19.434c5.189-5.249,12.114-8.143,19.494-8.143c7.273,0,14.127,2.822,19.297,7.941
					c5.21,5.159,8.098,12.037,8.138,19.361c0.036,7.335-2.782,14.234-7.936,19.443C261.374,448.708,254.449,451.601,247.069,451.601
					z M247.069,398.794c-6.823,0-13.222,2.671-18.021,7.526c-4.77,4.815-7.379,11.199-7.345,17.967
					c0.036,6.777,2.702,13.13,7.517,17.895c4.78,4.734,11.117,7.345,17.85,7.345c6.824,0,13.222-2.67,18.027-7.516
					c4.765-4.815,7.37-11.199,7.334-17.977c-0.036-6.778-2.707-13.131-7.521-17.896
					C260.129,401.404,253.792,398.794,247.069,398.794z"/>
			</g>
			<path fill="#313C46" d="M227.201,444.226c-11.057-10.945-11.147-28.851-0.187-39.928c10.95-11.058,28.856-11.148,39.913-0.193
				c11.067,10.946,11.153,28.862,0.207,39.919C256.174,455.091,238.268,455.182,227.201,444.226z M264.352,406.705
				c-9.625-9.539-25.209-9.459-34.738,0.172c-9.535,9.62-9.464,25.22,0.162,34.749c9.63,9.539,25.225,9.447,34.758-0.183
				C274.064,431.823,273.988,416.234,264.352,406.705z"/>
		</g>
		<g>
			<path fill="#FFFFFF" d="M262.253,432.531l-7.496-7.415c-0.551-0.547-0.557-1.426-0.01-1.982l7.42-7.496
				c0.546-0.546,0.541-1.437-0.01-1.982l-4.734-4.685c-0.546-0.546-1.442-0.546-1.983,0.01l-7.42,7.497
				c-0.546,0.546-1.432,0.546-1.983,0.01l-7.491-7.426c-0.557-0.546-1.442-0.535-1.988,0.011l-4.684,4.733
				c-0.546,0.547-0.541,1.438,0.01,1.984l7.491,7.414c0.551,0.547,0.556,1.437,0.01,1.983l-7.42,7.506
				c-0.546,0.546-0.542,1.437,0.01,1.982l4.734,4.684c0.546,0.547,1.442,0.537,1.983-0.01l7.42-7.496
				c0.546-0.546,1.437-0.556,1.983-0.01l7.496,7.415c0.551,0.546,1.437,0.546,1.983-0.01l4.684-4.726
				C262.805,433.968,262.805,433.087,262.253,432.531z"/>
			<path fill="#313C46" d="M235.42,440.655l-4.734-4.685c-1.264-1.254-1.279-3.298-0.021-4.562l7.127-7.204l-7.187-7.121
				c-1.27-1.255-1.285-3.298-0.031-4.572l4.689-4.734c1.254-1.264,3.303-1.274,4.572-0.01l7.188,7.111l7.117-7.183
				c1.259-1.274,3.308-1.284,4.572-0.03l4.729,4.684c1.27,1.265,1.285,3.309,0.025,4.582l-7.117,7.183l7.192,7.122
				c1.27,1.254,1.28,3.298,0.021,4.562l-4.684,4.734c-1.259,1.274-3.298,1.284-4.567,0.021l-7.193-7.111l-7.127,7.192
				C238.733,441.909,236.69,441.919,235.42,440.655z M233.569,433.675l4.122,4.087l7.122-7.192c1.254-1.265,3.312-1.285,4.577-0.031
				l7.188,7.122l4.087-4.128l-7.193-7.121c-1.264-1.244-1.279-3.297-0.02-4.562l7.116-7.192l-4.127-4.087l-7.117,7.192
				c-1.259,1.265-3.308,1.274-4.572,0.021l-7.192-7.121l-4.082,4.117l7.193,7.131c1.264,1.244,1.269,3.308,0.015,4.573
				L233.569,433.675z"/>
		</g>
		<g>
			
				<rect x="234.609" y="390.235" transform="matrix(0.7107 0.7035 -0.7035 0.7107 357.4679 -80.4886)" fill="#FFFFFF" width="83.958" height="8.227"/>
			<path fill="#313C46" d="M303.542,430.569l-63.448-62.822l9.54-9.63l63.448,62.821L303.542,430.569z M247.646,367.718
				l55.861,55.305l2.023-2.043l-55.861-55.315L247.646,367.718z"/>
		</g>
		<g>
			<path fill="#FFFFFF" d="M298.772,388.516c2.14-0.627,4.188-1.578,5.867-3.277c5.25-5.3,5.215-13.869-0.101-19.129
				c-5.306-5.25-13.869-5.21-19.124,0.101c-1.675,1.689-2.615,3.753-3.212,5.898l-4.092-4.056l-8.047,8.123l24.759,24.521
				l8.042-8.133L298.772,388.516z"/>
			<path fill="#313C46" d="M292.936,402.588l-24.749-24.511c-1.047-1.032-1.058-2.722-0.021-3.773l8.042-8.124
				c1.037-1.042,2.731-1.052,3.778-0.021l1.25,1.235c0.642-1.153,1.396-2.165,2.281-3.065c6.287-6.343,16.565-6.394,22.908-0.121
				c6.343,6.282,6.394,16.56,0.106,22.913c-0.885,0.89-1.896,1.649-3.045,2.317l1.25,1.232c1.047,1.033,1.057,2.732,0.021,3.775
				l-8.042,8.122C295.677,403.62,293.982,403.62,292.936,402.588z M273.836,376.164l20.96,20.748l4.289-4.329l-2.19-2.165
				c-0.673-0.668-0.946-1.629-0.708-2.549c0.228-0.91,0.921-1.639,1.832-1.912c2.069-0.607,3.566-1.437,4.719-2.6
				c4.213-4.259,4.183-11.138-0.07-15.356c-4.254-4.208-11.138-4.168-15.356,0.081c-1.153,1.173-1.962,2.67-2.549,4.754
				c-0.253,0.9-0.981,1.608-1.887,1.851c-0.91,0.233-1.887-0.021-2.56-0.688l-2.19-2.165L273.836,376.164z"/>
		</g>
		<g>
			<path fill="#19B0B7" d="M173.54,442.283l-18.705-18.522l18.522-18.704l18.71,18.521L173.54,442.283z M156.803,423.751
				l16.732,16.57l16.565-16.732l-16.732-16.57L156.803,423.751z"/>
			<path fill="#313C46" d="M173.556,444.862l-21.305-21.091l21.092-21.306l21.31,21.093L173.556,444.862z M159.388,423.741
				l14.132,13.989l13.996-14.132l-14.132-13.991L159.388,423.741z"/>
		</g>
		<g>
			<path fill="#19B0B7" d="M142.808,473.319l-18.705-18.522l18.522-18.704l18.705,18.521L142.808,473.319z M126.071,454.797
				l16.732,16.561l16.565-16.732l-16.732-16.561L126.071,454.797z"/>
			<path fill="#313C46" d="M142.818,475.909l-21.305-21.092l21.092-21.305l21.31,21.092L142.818,475.909z M128.65,454.787
				l14.132,13.99l14-14.143l-14.137-13.99L128.65,454.787z"/>
		</g>
		<g>
			<path fill="#19B0B7" d="M114.315,502.1l-18.705-18.521l18.522-18.706l18.705,18.523L114.315,502.1z M97.579,483.567l16.732,16.57
				l16.565-16.732l-16.732-16.57L97.579,483.567z"/>
			<path fill="#313C46" d="M114.326,504.689l-21.31-21.092l21.107-21.314l21.305,21.092L114.326,504.689z M100.168,483.558
				l14.132,13.99l13.986-14.133l-14.132-13.989L100.168,483.558z"/>
		</g>
		<polygon fill="#313C46" points="259.148,500.218 196.595,438.288 200.418,434.424 262.971,496.363 		"/>
		<polygon fill="#313C46" points="246.341,513.157 183.783,451.226 187.607,447.361 250.165,509.303 		"/>
		
			<rect x="155.046" y="494.966" transform="matrix(0.7106 0.7036 -0.7036 0.7106 407.7731 3.968)" fill="#313C46" width="88.035" height="5.437"/>
		
			<rect x="142.233" y="507.905" transform="matrix(0.7106 0.7036 -0.7036 0.7106 413.1746 16.7294)" fill="#313C46" width="88.035" height="5.436"/>
		
			<rect x="126.889" y="524.074" transform="matrix(0.7107 0.7035 -0.7035 0.7107 420.0676 32.1869)" fill="#313C46" width="88.028" height="5.439"/>
		<polygon fill="#313C46" points="187.46,572.63 124.902,510.688 128.726,506.834 191.284,568.765 		"/>
	</g>
	<g>
		<g>
			<g>
				<path fill="#F28257" d="M391.911,547.168c-4.891,12.229-18.77,18.168-30.99,13.271c-12.221-4.887-18.164-18.765-13.273-30.985
					c4.892-12.221,18.766-18.159,30.986-13.272C390.854,521.077,396.803,534.947,391.911,547.168z"/>
				<path fill="#313C46" d="M369.777,563.19c-3.166,0-6.277-0.606-9.241-1.79c-6.166-2.469-11.006-7.183-13.621-13.292
					c-2.615-6.111-2.696-12.868-0.228-19.039c3.798-9.499,12.868-15.63,23.1-15.63c3.167,0,6.272,0.597,9.231,1.781
					c12.736,5.098,18.947,19.604,13.854,32.33C389.074,557.051,380.01,563.19,369.777,563.19z M369.787,515.504
					c-9.377,0-17.692,5.624-21.178,14.335c-2.261,5.654-2.19,11.855,0.213,17.449c2.397,5.604,6.828,9.925,12.482,12.19
					c2.722,1.093,5.569,1.639,8.473,1.639c9.377,0,17.688-5.624,21.173-14.335c4.669-11.664-1.026-24.966-12.701-29.641
					C375.533,516.061,372.686,515.504,369.787,515.504z"/>
			</g>
			<path fill="#313C46" d="M360.304,561.978c-13.044-5.22-19.408-20.081-14.183-33.142c5.22-13.039,20.081-19.412,33.131-14.191
				c13.049,5.229,19.417,20.09,14.192,33.13C388.219,560.834,373.358,567.206,360.304,561.978z M378.022,517.72
				c-11.355-4.553-24.289,0.991-28.835,12.341c-4.548,11.36,0.991,24.31,12.346,28.851c11.365,4.553,24.299-1,28.846-12.361
				C394.926,535.199,389.388,522.262,378.022,517.72z"/>
		</g>
		<g>
			<path fill="#FFFFFF" d="M385.351,539.943l-8.842-3.539c-0.652-0.264-0.966-0.992-0.703-1.639l3.536-8.853
				c0.263-0.647-0.056-1.386-0.703-1.639l-5.584-2.236c-0.647-0.263-1.391,0.051-1.648,0.698l-3.541,8.852
				c-0.258,0.648-0.991,0.962-1.644,0.698l-8.836-3.54c-0.652-0.253-1.391,0.06-1.649,0.708l-2.235,5.583
				c-0.258,0.648,0.055,1.386,0.708,1.649l8.841,3.531c0.648,0.263,0.961,1.001,0.703,1.648l-3.54,8.841
				c-0.258,0.648,0.055,1.387,0.708,1.649l5.584,2.235c0.647,0.253,1.386-0.061,1.644-0.708l3.54-8.841
				c0.258-0.647,0.997-0.962,1.645-0.708l8.841,3.541c0.652,0.263,1.386-0.051,1.644-0.708l2.236-5.574
				C386.317,540.936,386.003,540.207,385.351,539.943z"/>
			<path fill="#313C46" d="M365.888,556.13l-5.584-2.235c-1.492-0.597-2.221-2.296-1.624-3.794l3.399-8.497l-8.482-3.389
				c-1.497-0.598-2.226-2.297-1.629-3.795l2.235-5.584c0.603-1.496,2.302-2.225,3.799-1.618l8.477,3.39l3.399-8.478
				c0.597-1.498,2.296-2.227,3.789-1.629l5.584,2.235c1.497,0.597,2.225,2.297,1.628,3.794l-3.394,8.478l8.482,3.398
				c1.497,0.597,2.221,2.297,1.624,3.794l-2.236,5.584c-0.597,1.498-2.292,2.215-3.789,1.618l-8.482-3.389l-3.398,8.487
				C369.084,555.998,367.385,556.727,365.888,556.13z M361.892,550.97l4.871,1.943l3.394-8.477c0.597-1.498,2.307-2.236,3.793-1.64
				l8.482,3.398l1.947-4.865l-8.482-3.399c-1.492-0.597-2.22-2.286-1.624-3.783l3.394-8.487l-4.866-1.942l-3.399,8.478
				c-0.597,1.496-2.296,2.225-3.789,1.629l-8.487-3.399l-1.948,4.866l8.488,3.389c1.492,0.597,2.215,2.307,1.618,3.804
				L361.892,550.97z"/>
		</g>
	</g>
	<path fill="#313C46" d="M1196.404,334.354c-1.233,0-2.448-0.222-3.611-0.678c-4.755-1.861-7.364-7.162-5.928-12.068l0.292-0.991
		l18.624,7.263l-0.455,0.931C1203.667,332.18,1200.168,334.354,1196.404,334.354z M1188.452,323.146
		c-0.576,3.671,1.497,7.395,5.028,8.771c3.48,1.335,7.607-0.021,9.641-3.045L1188.452,323.146z"/>
	<path fill="#313C46" d="M1205.671,328.173l-18.634-7.253l0.455-0.92c1.658-3.369,5.168-5.554,8.922-5.554
		c1.234,0,2.458,0.232,3.612,0.688c4.765,1.851,7.374,7.152,5.938,12.058L1205.671,328.173z M1189.697,319.939l14.678,5.715
		c0.577-3.672-1.496-7.395-5.036-8.771C1195.858,315.529,1191.731,316.905,1189.697,319.939z"/>
	<g>
		<path fill="#FFFFFF" d="M1188.018,321.133c-0.102,0.243-0.172,0.496-0.243,0.739l16.712,6.515
			c0.111-0.233,0.224-0.465,0.325-0.718c0.09-0.243,0.171-0.496,0.241-0.738l-16.711-6.515
			C1188.23,320.647,1188.119,320.88,1188.018,321.133z"/>
		<path fill="#313C46" d="M1204.942,329.58l-18.311-7.142l0.233-0.82c0.08-0.273,0.172-0.546,0.271-0.829
			c0.112-0.273,0.234-0.546,0.355-0.789l0.384-0.779l18.331,7.143l-0.243,0.829c-0.092,0.283-0.173,0.546-0.283,0.819
			c-0.102,0.273-0.222,0.536-0.354,0.799L1204.942,329.58z"/>
	</g>
	<path fill="#FFFFFF" d="M1193.167,332.807c4.4,1.679,9.297-0.324,11.31-4.492l-16.752-6.394
		C1186.449,326.373,1188.767,331.127,1193.167,332.807z"/>
	<path fill="#FFFFFF" d="M1199.682,316.004c-4.391-1.71-9.297,0.263-11.34,4.41l16.711,6.515
		C1206.358,322.488,1204.072,317.714,1199.682,316.004z"/>
</g>
</svg>
